<svg height="512" viewBox="0 0 512 512" width="512" xmlns="http://www.w3.org/2000/svg"><g id="flat"><path d="m456 416h17.636a14 14 0 0 0 14-14.359l-14.936-284.375a14 14 0 0 0 -13.984-13.266h-18.716z" fill="#bbbab6"/><path d="m38 104h404a14 14 0 0 1 14 14v50a0 0 0 0 1 0 0h-432a0 0 0 0 1 0 0v-50a14 14 0 0 1 14-14z" fill="#007af6"/><path d="m24 168h432a0 0 0 0 1 0 0v258a14 14 0 0 1 -14 14h-404a14 14 0 0 1 -14-14v-258a0 0 0 0 1 0 0z" fill="#cdccc8"/><path d="m24 168h176a0 0 0 0 1 0 0v272a0 0 0 0 1 0 0h-162a14 14 0 0 1 -14-14v-258a0 0 0 0 1 0 0z" fill="#eae9e4"/><path d="m104 352a56.063 56.063 0 0 1 -56-56v-32a8 8 0 0 1 16 0v32a40 40 0 0 0 80 0v-32a8 8 0 0 1 16 0v32a56.063 56.063 0 0 1 -56 56z" fill="#ffb05e"/><path d="m136 392h-20a20.023 20.023 0 0 1 -20-20v-28a8 8 0 0 1 16 0v28a4 4 0 0 0 4 4h20a8 8 0 0 1 0 16z" fill="#ffb05e"/><circle cx="152" cy="384" fill="#ffb05e" r="16"/><circle cx="264" cy="232" fill="#bbbab6" r="16"/><circle cx="328" cy="232" fill="#bbbab6" r="16"/><circle cx="392" cy="232" fill="#bbbab6" r="16"/><circle cx="264" cy="296" fill="#bbbab6" r="16"/><circle cx="328" cy="296" fill="#eae9e4" r="16"/><circle cx="392" cy="296" fill="#bbbab6" r="16"/><circle cx="264" cy="360" fill="#bbbab6" r="16"/><circle cx="328" cy="360" fill="#bbbab6" r="16"/><g fill="#eae9e4"><rect height="64" rx="16" width="32" x="176" y="72"/><rect height="64" rx="16" width="32" x="272" y="72"/><rect height="64" rx="16" width="32" x="80" y="72"/><rect height="64" rx="16" width="32" x="368" y="72"/><rect height="64" rx="16" width="32" x="176" y="72"/><rect height="64" rx="16" width="32" x="272" y="72"/><rect height="64" rx="16" width="32" x="80" y="72"/><rect height="64" rx="16" width="32" x="368" y="72"/></g><rect fill="#dcdbd6" height="56" rx="16" width="32" x="176" y="80"/><rect fill="#dcdbd6" height="56" rx="16" width="32" x="272" y="80"/><rect fill="#dcdbd6" height="56" rx="16" width="32" x="80" y="80"/><rect fill="#dcdbd6" height="56" rx="16" width="32" x="368" y="80"/><path d="m152 248h-32v-32h-32v32h-32v32h32v32h32v-32h32z" fill="#02a437"/></g></svg>