<svg id="Capa_1" enable-background="new 0 0 512 512" height="512" viewBox="0 0 512 512" width="512" xmlns="http://www.w3.org/2000/svg"><g><path d="m346.747 32.287h116.104v59.828h-116.104z" fill="#4d5e80" transform="matrix(.707 -.707 .707 .707 74.58 304.454)"/><path d="m357.327 57.829h116.104v29.904h-116.104z" fill="#3d4566" transform="matrix(.707 -.707 .707 .707 70.198 315.034)"/><g><path d="m162.188 304.827c-17.52-17.534-17.49-46.025 0-63.53l31.523-31.978 63.984 63.955-32.051 31.611c-17.3 17.301-45.786 17.524-63.456-.058z" fill="#d9e5ff"/></g><g id="Microscope_1_"><g><g><path d="m389.238 452h-134.238v-30c49.629 0 90-40.371 90-90 0-31.538-16.172-60.293-43.242-76.919l-16.201-9.946 65.742-65.757 10.371 7.632c45.908 33.75 73.33 87.949 73.33 144.99 0 74.021-44.004 116.999-45.762 120z" fill="#3d4566"/></g></g></g><g><path d="m135 377h90v60h-90z" fill="#4d5e80"/></g><g><path d="m45 362h210v30h-210z" fill="#d9e5ff"/></g><path d="m225.645 304.886 32.051-31.611-31.985-31.97-63.523 63.523c17.669 17.581 46.157 17.358 63.457.058z" fill="#bfd6ff"/><g><path d="m321.301 39.5-163.501 163.799 105.899 105.901 163.801-163.5z" fill="#d9e5ff"/></g><path d="m263.699 309.2 163.801-163.501-53.091-53.093-163.651 163.651z" fill="#95b2e6"/><g><path d="m200.143 146.847h29.997v210.009h-29.997z" fill="#4d5e80" transform="matrix(.707 -.707 .707 .707 -115.073 225.91)"/></g><path d="m237.275 236.485h29.997v104.989h-29.997z" fill="#3d4566" transform="matrix(.707 -.707 .707 .707 -130.45 263.024)"/><g><path d="m435 497h-360v-30c0-24.814 20.186-45 45-45h270c24.814 0 45 20.186 45 45z" fill="#ecf2ff"/></g><path d="m390 422h-135v75h180v-30c0-24.814-20.186-45-45-45z" fill="#d9e5ff"/><g><path d="m45 482h420v30h-420z" fill="#4d5e80"/></g><path d="m255 482h210v30h-210z" fill="#3d4566"/></g></svg>