<svg id="Capa_1" enable-background="new 0 0 512 512" height="512" viewBox="0 0 512 512" width="512" xmlns="http://www.w3.org/2000/svg"><g><path d="m376 0h-240c-24.901 0-45 20.099-45 45v422c0 24.899 20.099 45 45 45h240c24.901 0 45-20.101 45-45v-422c0-24.901-20.099-45-45-45z" fill="#5f5166"/><path d="m421 45v422c0 24.899-20.099 45-45 45h-120v-512h120c24.901 0 45 20.099 45 45z" fill="#45354d"/><path d="m121 60h270v392h-270z" fill="#edf1f9"/><path d="m256 60h135v392h-135z" fill="#d8e0f0"/><circle cx="196" cy="376" fill="#5f5166" r="15"/><path d="m331 376c0 8.399-6.599 15-15 15h-60c-8.401 0-15-6.601-15-15 0-8.401 6.599-15 15-15h60c8.401 0 15 6.599 15 15z" fill="#5f5166"/><g><path d="m361 136v180c0 8.399-6.599 15-15 15h-180c-8.401 0-15-6.601-15-15v-180c0-8.401 6.599-15 15-15h45l30 30h30l30-30h45c8.401 0 15 6.599 15 15z" fill="#fc9"/><path d="m361 136v180c0 8.399-6.599 15-15 15h-90v-180h15l30-30h45c8.401 0 15 6.599 15 15z" fill="#f2ab79"/><path d="m301 121v75c0 8.399-6.599 15-15 15h-60c-8.401 0-15-6.601-15-15v-75z" fill="#f2ab79"/><path d="m301 121v75c0 8.399-6.599 15-15 15h-30v-90z" fill="#e6895c"/></g><path d="m331 376c0 8.399-6.599 15-15 15h-60v-30h60c8.401 0 15 6.599 15 15z" fill="#45354d"/></g></svg>